<?xml version="1.0" standalone="no"?>
<!DOCTYPE svg PUBLIC "-//W3C//DTD SVG 20010904//EN"
 "http://www.w3.org/TR/2001/REC-SVG-20010904/DTD/svg10.dtd">
<svg version="1.0" xmlns="http://www.w3.org/2000/svg"
 width="400.000000pt" height="400.000000pt" viewBox="0 0 400.000000 400.000000"
 preserveAspectRatio="xMidYMid meet">
<metadata>
Created by potrace 1.11, written by Peter Selinger 2001-2013
</metadata>
<g transform="translate(0.000000,400.000000) scale(0.100000,-0.100000)"
fill="#000000" stroke="none">
<path d="M1820 3868 c-30 -4 -77 -10 -105 -13 -121 -14 -294 -58 -390 -100
-16 -8 -33 -11 -37 -9 -4 3 -8 0 -8 -5 0 -6 -7 -11 -15 -11 -43 0 -285 -134
-415 -229 -177 -130 -378 -342 -483 -510 -64 -102 -171 -319 -182 -368 -2 -7
-12 -41 -23 -75 -11 -35 -24 -76 -28 -93 -4 -16 -8 -34 -10 -40 -1 -5 -4 -21
-7 -35 -3 -14 -8 -36 -11 -50 -13 -55 -28 -217 -28 -315 0 -111 15 -306 25
-322 3 -5 8 -26 11 -48 4 -22 9 -48 12 -57 3 -9 7 -27 9 -40 6 -29 34 -126 45
-153 4 -11 15 -36 24 -57 9 -20 16 -43 16 -51 0 -9 5 -19 10 -22 11 -7 43 -80
40 -91 -1 -4 3 -10 8 -13 5 -3 17 -22 27 -41 27 -53 139 -221 169 -253 14 -15
26 -31 26 -36 0 -24 320 -321 346 -321 5 0 15 -9 22 -20 7 -11 19 -20 26 -20
8 0 16 -4 18 -9 8 -22 270 -160 377 -198 28 -10 51 -21 51 -25 0 -5 8 -8 19
-8 10 0 38 -7 62 -16 24 -8 55 -18 69 -20 14 -3 41 -9 60 -14 19 -5 50 -12 69
-15 19 -3 37 -8 41 -10 3 -2 35 -6 71 -9 35 -4 97 -10 137 -14 78 -9 93 -5 93
24 -1 10 -3 282 -6 603 -2 321 -6 605 -9 630 -3 41 -6 46 -30 49 -14 2 -26 6
-26 10 0 4 -16 8 -35 9 -56 3 -192 81 -262 150 -35 35 -63 67 -63 72 0 5 -6
16 -14 24 -12 12 -39 69 -71 152 -23 60 -21 261 2 299 4 6 9 19 10 28 4 27 62
129 102 179 94 120 284 209 446 211 57 0 134 -11 156 -23 11 -5 25 -9 32 -8
19 2 57 -12 57 -22 0 -5 3 -8 8 -7 15 3 64 -23 115 -60 53 -40 137 -129 137
-146 0 -5 6 -17 14 -25 12 -14 42 -83 49 -116 2 -5 5 -14 8 -20 18 -30 31
-176 18 -205 -4 -8 -9 -31 -12 -50 -7 -50 -49 -150 -88 -207 -40 -58 -126
-143 -145 -143 -8 0 -14 -4 -14 -10 0 -5 -5 -10 -10 -10 -6 0 -29 -12 -53 -27
-23 -14 -44 -26 -47 -26 -28 2 -29 -15 -24 -450 5 -431 11 -839 13 -865 1 -11
15 -12 64 -7 34 3 69 8 77 10 8 2 31 7 50 10 19 3 53 11 75 16 22 6 47 12 55
14 32 6 207 68 240 85 19 10 38 19 42 19 16 4 83 34 88 40 3 3 23 15 45 26
179 88 418 281 554 445 72 88 95 118 104 137 6 13 14 23 19 23 4 0 8 6 8 14 0
8 3 16 8 18 8 3 92 143 92 153 0 4 8 19 18 33 40 60 129 316 156 452 3 14 7
35 10 48 19 87 27 419 12 537 -5 45 -8 64 -22 145 -17 95 -130 419 -153 440
-3 3 -16 25 -28 50 -166 337 -516 667 -888 837 -83 38 -250 100 -289 107 -15
3 -42 9 -59 15 -43 13 -167 36 -257 47 -66 9 -365 10 -420 2z"/>
<path d="M1977 2324 c-1 -1 -19 -5 -40 -8 -57 -9 -112 -41 -166 -96 -63 -65
-83 -109 -86 -189 -3 -131 31 -211 120 -281 75 -58 186 -79 311 -58 59 11 163
98 199 168 39 76 36 213 -8 295 -35 66 -122 138 -189 155 -35 10 -135 20 -141
14z"/>
</g>
</svg>
